<?xml version="1.0" encoding="UTF-8" standalone="no"?>
<!-- Created with Inkscape (http://www.inkscape.org/) -->

<svg
   xmlns:dc="http://purl.org/dc/elements/1.1/"
   xmlns:cc="http://creativecommons.org/ns#"
   xmlns:rdf="http://www.w3.org/1999/02/22-rdf-syntax-ns#"
   xmlns:svg="http://www.w3.org/2000/svg"
   xmlns="http://www.w3.org/2000/svg"
   xmlns:sodipodi="http://sodipodi.sourceforge.net/DTD/sodipodi-0.dtd"
   xmlns:inkscape="http://www.inkscape.org/namespaces/inkscape"
   width="793.46912"
   height="699.66571"
   id="svg2"
   sodipodi:version="0.32"
   inkscape:version="0.48.3.1 r9886"
   version="1.0"
   sodipodi:docname="leaf1.svg"
   inkscape:output_extension="org.inkscape.output.svg.inkscape"
   inkscape:export-filename="/Users/pplsuser/Desktop/Stuff/FoxWolf/ZooImages/Screens/NameScreen2.png"
   inkscape:export-xdpi="90"
   inkscape:export-ydpi="90">
  <defs
     id="defs4">
    <marker
       inkscape:stockid="TriangleOutL"
       orient="auto"
       refY="0"
       refX="0"
       id="TriangleOutL"
       style="overflow:visible">
      <path
         id="path5893"
         d="m 5.77,0 -8.65,5 0,-10 8.65,5 z"
         style="fill-rule:evenodd;stroke:#000000;stroke-width:1pt;marker-start:none"
         transform="scale(0.8,0.8)"
         inkscape:connector-curvature="0" />
    </marker>
    <marker
       inkscape:stockid="Arrow1Lend"
       orient="auto"
       refY="0"
       refX="0"
       id="Arrow1Lend"
       style="overflow:visible">
      <path
         id="path5753"
         d="M 0,0 5,-5 -12.5,0 5,5 0,0 z"
         style="fill-rule:evenodd;stroke:#000000;stroke-width:1pt;marker-start:none"
         transform="matrix(-0.8,0,0,-0.8,-10,0)"
         inkscape:connector-curvature="0" />
    </marker>
    <inkscape:perspective
       sodipodi:type="inkscape:persp3d"
       inkscape:vp_x="0 : 526.18109 : 1"
       inkscape:vp_y="0 : 1000 : 0"
       inkscape:vp_z="744.09448 : 526.18109 : 1"
       inkscape:persp3d-origin="372.04724 : 350.78739 : 1"
       id="perspective10" />
    <inkscape:perspective
       id="perspective2627"
       inkscape:persp3d-origin="372.04724 : 350.78739 : 1"
       inkscape:vp_z="744.09448 : 526.18109 : 1"
       inkscape:vp_y="0 : 1000 : 0"
       inkscape:vp_x="0 : 526.18109 : 1"
       sodipodi:type="inkscape:persp3d" />
  </defs>
  <sodipodi:namedview
     id="base"
     pagecolor="#ffffff"
     bordercolor="#666666"
     borderopacity="1.0"
     gridtolerance="10000"
     guidetolerance="10"
     objecttolerance="10"
     inkscape:pageopacity="0.0"
     inkscape:pageshadow="2"
     inkscape:zoom="0.35355339"
     inkscape:cx="199.5829"
     inkscape:cy="218.59033"
     inkscape:document-units="px"
     inkscape:current-layer="layer1"
     showgrid="false"
     inkscape:window-width="1280"
     inkscape:window-height="786"
     inkscape:window-x="0"
     inkscape:window-y="14"
     showguides="true"
     inkscape:guide-bbox="true"
     inkscape:window-maximized="0"
     fit-margin-top="0"
     fit-margin-left="0"
     fit-margin-right="0"
     fit-margin-bottom="0" />
  <metadata
     id="metadata7">
    <rdf:RDF>
      <cc:Work
         rdf:about="">
        <dc:format>image/svg+xml</dc:format>
        <dc:type
           rdf:resource="http://purl.org/dc/dcmitype/StillImage" />
      </cc:Work>
    </rdf:RDF>
  </metadata>
  <g
     inkscape:label="Layer 1"
     inkscape:groupmode="layer"
     id="layer1"
     transform="translate(-296.23007,-125.45226)">
    <path
       style="fill:#3e9504;fill-opacity:1;fill-rule:evenodd;stroke:none"
       d="m 801.28054,302.7676 c 12.65,22.42416 7.838,49.6084 46.044,79.79511 24.2924,-12.32174 206.79586,3.85517 220.77406,58.28928 13.9783,54.4341 38.0902,46.29871 4.8101,45.97118 -28.9496,-42.94682 -126.73856,-23.49002 -175.04376,-36.41864 -10.0656,29.43204 31.1746,81.87977 37.051,103.70183 31.8977,54.03463 33.7203,106.20853 -19.8189,271.01163 -70.5775,-174.1334 7.2198,-205.071 -7.4829,-258.91983 -14.7027,-53.84882 -44.3553,-87.25471 -55.2675,-98.47999 -53.3992,4.36622 48.6355,35.4223 -101.9826,259.58472 -69.46056,-231.22348 86.2638,-245.92065 74.3581,-307.12108 -11.9058,-61.20043 -1.8049,-74.14255 -56.6682,-76.3231 -54.8632,-2.18057 -37.2606,208.74259 -191.87713,224.3525 C 559.84765,435.45639 706.47724,328.38017 684.0841,279.62738 661.69088,230.8746 685.14336,252.93813 638.40889,267.97875 608.19547,245.43719 559.90327,485.36821 441.943,487.248 423.3949,316.44841 634.23914,259.78584 563.50582,193.47004 c -70.7333,-66.31577 -59.8909,151.96057 -266.45762,209.4721 -8.31305,-112.36075 48.53001,-156.86929 88.62213,-199.87339 40.09211,-43.00409 94.40208,-77.37087 156.18166,-77.61588 61.77956,-0.24504 185.42855,73.13334 221.04155,107.69544 35.613,34.56211 25.737,47.19514 38.387,69.61929 z"
       id="path3622"
       sodipodi:nodetypes="cccccccccccccccccccccc"
       inkscape:connector-curvature="0" />
    <text
       xml:space="preserve"
       style="font-size:19px;font-style:normal;font-variant:normal;font-weight:normal;font-stretch:normal;text-align:start;line-height:100%;writing-mode:lr-tb;text-anchor:start;fill:#000000;fill-opacity:1;stroke:none;font-family:Arial;-inkscape-font-specification:Arial"
       x="62.629459"
       y="943.18781"
       id="text5449"
       sodipodi:linespacing="100%"><tspan
         sodipodi:role="line"
         id="tspan5451"
         x="62.629459"
         y="943.18781" /></text>
    <flowRoot
       xml:space="preserve"
       id="flowRoot5559"
       style="font-size:19px;font-style:normal;font-variant:normal;font-weight:normal;font-stretch:normal;text-align:start;line-height:100%;writing-mode:lr-tb;text-anchor:start;fill:#000000;fill-opacity:1;stroke:none;font-family:Arial;-inkscape-font-specification:Arial"><flowRegion
         id="flowRegion5561"><rect
           id="rect5563"
           width="462.64987"
           height="105.05586"
           x="165.66502"
           y="801.76642" /></flowRegion><flowPara
         id="flowPara5565" /></flowRoot>    <flowRoot
       xml:space="preserve"
       id="flowRoot5737"
       style="font-size:19px;font-style:normal;font-variant:normal;font-weight:normal;font-stretch:normal;text-align:start;line-height:100%;writing-mode:lr-tb;text-anchor:start;fill:#000000;fill-opacity:1;stroke:none;font-family:Arial;-inkscape-font-specification:Arial"><flowRegion
         id="flowRegion5739"><rect
           id="rect5741"
           width="177.78685"
           height="64.649765"
           x="971.76672"
           y="920.96442" /></flowRegion><flowPara
         id="flowPara5743" /></flowRoot>  </g>
</svg>
