<?xml version="1.0" encoding="UTF-8" standalone="no"?>
<!-- Created with Inkscape (http://www.inkscape.org/) -->

<svg
   xmlns:dc="http://purl.org/dc/elements/1.1/"
   xmlns:cc="http://creativecommons.org/ns#"
   xmlns:rdf="http://www.w3.org/1999/02/22-rdf-syntax-ns#"
   xmlns:svg="http://www.w3.org/2000/svg"
   xmlns="http://www.w3.org/2000/svg"
   xmlns:sodipodi="http://sodipodi.sourceforge.net/DTD/sodipodi-0.dtd"
   xmlns:inkscape="http://www.inkscape.org/namespaces/inkscape"
   width="605.40186"
   height="591.63788"
   id="svg2"
   sodipodi:version="0.32"
   inkscape:version="0.48.3.1 r9886"
   version="1.0"
   sodipodi:docname="leaf2.svg"
   inkscape:output_extension="org.inkscape.output.svg.inkscape"
   inkscape:export-filename="/Users/pplsuser/Desktop/Stuff/FoxWolf/ZooImages/Screens/NameScreen2.png"
   inkscape:export-xdpi="90"
   inkscape:export-ydpi="90">
  <defs
     id="defs4">
    <marker
       inkscape:stockid="TriangleOutL"
       orient="auto"
       refY="0"
       refX="0"
       id="TriangleOutL"
       style="overflow:visible">
      <path
         id="path5893"
         d="m 5.77,0 -8.65,5 0,-10 8.65,5 z"
         style="fill-rule:evenodd;stroke:#000000;stroke-width:1pt;marker-start:none"
         transform="scale(0.8,0.8)"
         inkscape:connector-curvature="0" />
    </marker>
    <marker
       inkscape:stockid="Arrow1Lend"
       orient="auto"
       refY="0"
       refX="0"
       id="Arrow1Lend"
       style="overflow:visible">
      <path
         id="path5753"
         d="M 0,0 5,-5 -12.5,0 5,5 0,0 z"
         style="fill-rule:evenodd;stroke:#000000;stroke-width:1pt;marker-start:none"
         transform="matrix(-0.8,0,0,-0.8,-10,0)"
         inkscape:connector-curvature="0" />
    </marker>
    <inkscape:perspective
       sodipodi:type="inkscape:persp3d"
       inkscape:vp_x="0 : 526.18109 : 1"
       inkscape:vp_y="0 : 1000 : 0"
       inkscape:vp_z="744.09448 : 526.18109 : 1"
       inkscape:persp3d-origin="372.04724 : 350.78739 : 1"
       id="perspective10" />
    <inkscape:perspective
       id="perspective2627"
       inkscape:persp3d-origin="372.04724 : 350.78739 : 1"
       inkscape:vp_z="744.09448 : 526.18109 : 1"
       inkscape:vp_y="0 : 1000 : 0"
       inkscape:vp_x="0 : 526.18109 : 1"
       sodipodi:type="inkscape:persp3d" />
  </defs>
  <sodipodi:namedview
     id="base"
     pagecolor="#ffffff"
     bordercolor="#666666"
     borderopacity="1.0"
     gridtolerance="10000"
     guidetolerance="10"
     objecttolerance="10"
     inkscape:pageopacity="0.0"
     inkscape:pageshadow="2"
     inkscape:zoom="0.35355339"
     inkscape:cx="167.77467"
     inkscape:cy="246.60081"
     inkscape:document-units="px"
     inkscape:current-layer="layer1"
     showgrid="false"
     inkscape:window-width="1280"
     inkscape:window-height="786"
     inkscape:window-x="0"
     inkscape:window-y="14"
     showguides="true"
     inkscape:guide-bbox="true"
     inkscape:window-maximized="0"
     fit-margin-top="0"
     fit-margin-left="0"
     fit-margin-right="0"
     fit-margin-bottom="0" />
  <metadata
     id="metadata7">
    <rdf:RDF>
      <cc:Work
         rdf:about="">
        <dc:format>image/svg+xml</dc:format>
        <dc:type
           rdf:resource="http://purl.org/dc/dcmitype/StillImage" />
      </cc:Work>
    </rdf:RDF>
  </metadata>
  <g
     inkscape:label="Layer 1"
     inkscape:groupmode="layer"
     id="layer1"
     transform="translate(-328.0383,-261.49057)">
    <path
       style="fill:#3e9504;fill-opacity:1;fill-rule:evenodd;stroke:none"
       d="M 933.44018,853.12847 C 888.3609,757.7722 916.74843,719.27656 862.37125,649.96227 c -20.85086,-25.06778 -89.3292,-30.3733 -97.39077,-60.28011 -11.57469,-42.93985 89.20227,-27.89804 81.59765,-129.49059 -74.52367,-2.2679 -117.39405,75.64184 -173.72401,66.9779 -14.28467,-2.19707 -33.14611,-16.74365 -34.21832,-29.02376 29.58295,-13.31333 118.12576,-69.49242 105.28724,-120.56015 -187.35312,62.40628 -115.7693,80.28829 -176.35618,84.83865 -28.36047,2.12999 -82.67029,-3.3458 -89.4942,-26.79118 -10.57993,-36.35051 45.82204,-10.31454 100.02293,-91.53646 12.58136,-22.61577 38.8048,-70.26712 13.16087,-82.606 -37.0847,17.66208 -153.83819,78.69365 -194.78145,131.72316 -43.44489,56.2696 -56.16761,67.46725 -68.43671,216.56176 168.1974,-66.96447 61.87179,-134.10278 123.71254,-142.88613 24.62817,-3.49796 59.60855,20.37427 68.43676,40.18673 37.20247,15.24496 -151.56491,-14.58684 -63.17237,216.56184 68.80313,-95.61649 49.68117,-160.20985 118.4482,-183.07287 18.59905,-6.18363 54.86868,2.44968 63.17237,17.86075 32.67177,60.63675 -65.13024,-94.18055 -100.02293,205.39884 2.5749,14.58777 13.94838,50.34407 36.85056,37.95413 69.79678,-74.14393 53.94087,-180.55354 131.60906,-200.93367 20.24216,-5.31152 47.55306,14.64703 63.17238,26.79118 68.98527,53.6367 -54.18637,108.26981 163.19531,225.49218 z"
       id="path4046"
       sodipodi:nodetypes="ccccccccccccccccccccccc"
       inkscape:connector-curvature="0" />
    <text
       xml:space="preserve"
       style="font-size:19px;font-style:normal;font-variant:normal;font-weight:normal;font-stretch:normal;text-align:start;line-height:100%;writing-mode:lr-tb;text-anchor:start;fill:#000000;fill-opacity:1;stroke:none;font-family:Arial;-inkscape-font-specification:Arial"
       x="62.629459"
       y="943.18781"
       id="text5449"
       sodipodi:linespacing="100%"><tspan
         sodipodi:role="line"
         id="tspan5451"
         x="62.629459"
         y="943.18781" /></text>
    <flowRoot
       xml:space="preserve"
       id="flowRoot5559"
       style="font-size:19px;font-style:normal;font-variant:normal;font-weight:normal;font-stretch:normal;text-align:start;line-height:100%;writing-mode:lr-tb;text-anchor:start;fill:#000000;fill-opacity:1;stroke:none;font-family:Arial;-inkscape-font-specification:Arial"><flowRegion
         id="flowRegion5561"><rect
           id="rect5563"
           width="462.64987"
           height="105.05586"
           x="165.66502"
           y="801.76642" /></flowRegion><flowPara
         id="flowPara5565" /></flowRoot>    <flowRoot
       xml:space="preserve"
       id="flowRoot5737"
       style="font-size:19px;font-style:normal;font-variant:normal;font-weight:normal;font-stretch:normal;text-align:start;line-height:100%;writing-mode:lr-tb;text-anchor:start;fill:#000000;fill-opacity:1;stroke:none;font-family:Arial;-inkscape-font-specification:Arial"><flowRegion
         id="flowRegion5739"><rect
           id="rect5741"
           width="177.78685"
           height="64.649765"
           x="971.76672"
           y="920.96442" /></flowRegion><flowPara
         id="flowPara5743" /></flowRoot>  </g>
</svg>
